<!DOCTYPE svg PUBLIC "-//W3C//DTD SVG 1.1//EN" "http://www.w3.org/Graphics/SVG/1.1/DTD/svg11.dtd">
<!-- Uploaded to: SVG Repo, www.svgrepo.com, Transformed by: SVG Repo Mixer Tools -->
<svg fill="#b1b1b1" width="800px" height="800px" viewBox="0 0 1024 1024" xmlns="http://www.w3.org/2000/svg" stroke="#b1b1b1">
<g id="SVGRepo_bgCarrier" stroke-width="0"/>
<g id="SVGRepo_tracerCarrier" stroke-linecap="round" stroke-linejoin="round"/>
<g id="SVGRepo_iconCarrier">
<path d="M808.36 891.566c16.962 0 30.72-13.758 30.72-30.72v-467.63c0-16.962-13.758-30.72-30.72-30.72H215.044c-16.968 0-30.72 13.754-30.72 30.72v467.63c0 16.966 13.752 30.72 30.72 30.72H808.36zm0 40.96H215.044c-39.591 0-71.68-32.094-71.68-71.68v-467.63c0-39.586 32.089-71.68 71.68-71.68H808.36c39.583 0 71.68 32.097 71.68 71.68v467.63c0 39.583-32.097 71.68-71.68 71.68z"/>
<path d="M167.943 569.003h670.444c11.311 0 20.48-9.169 20.48-20.48s-9.169-20.48-20.48-20.48H167.943c-11.311 0-20.48 9.169-20.48 20.48s9.169 20.48 20.48 20.48zm0 174.08h670.444c11.311 0 20.48-9.169 20.48-20.48s-9.169-20.48-20.48-20.48H167.943c-11.311 0-20.48 9.169-20.48 20.48s9.169 20.48 20.48 20.48zM291.54 967.339c0 8.483 6.877 15.36 15.36 15.36s15.36-6.877 15.36-15.36v-34.816h-30.72v34.816zm15.36 56.32c-31.105 0-56.32-25.215-56.32-56.32v-75.776h112.64v75.776c0 31.105-25.215 56.32-56.32 56.32zm394.24-56.32c0 8.483 6.877 15.36 15.36 15.36s15.36-6.877 15.36-15.36v-34.816h-30.72v34.816zm15.36 56.32c-31.105 0-56.32-25.215-56.32-56.32v-75.776h112.64v75.776c0 31.105-25.215 56.32-56.32 56.32zM257.201 40.96h509c11.311 0 20.48-9.169 20.48-20.48S777.512 0 766.201 0h-509c-11.311 0-20.48 9.169-20.48 20.48s9.169 20.48 20.48 20.48z"/>
<path d="M345.948 20.48v321.536c0 11.311 9.169 20.48 20.48 20.48s20.48-9.169 20.48-20.48V20.48c0-11.311-9.169-20.48-20.48-20.48s-20.48 9.169-20.48 20.48zm307.2 0v321.536c0 11.311 9.169 20.48 20.48 20.48s20.48-9.169 20.48-20.48V20.48c0-11.311-9.169-20.48-20.48-20.48s-20.48 9.169-20.48 20.48z"/>
</g>
</svg>